# xmcd
#
# Track frame offsets:
#	152
#	9900
#	19827
#	36990
#	51132
#	61132
#	71382
#	86980
#	99317
#	111982
#	124180
#	132637
#
# Disc length: 1897 seconds
#
# Revision: 2116764948
# Processed by: cddbd v1.5.2PL0 Copyright (c) Steve Scherf et al.
# Submitted via: EZCDAudioConverter 8.1.0.1
#
DISCID=a207670c
DTITLE=Ike and Tina Turner - Star Portrait (Intertape CD 500.055 Stereo ADD)
DYEAR=1987
DGENRE=Soul
TTITLE0=Too Hot To Hold
TTITLE1=Please Love Me
TTITLE2=I Smell Trouble
TTITLE3=It Sho' Ain't Me
TTITLE4=Beauty Is Just Skin Deep
TTITLE5=Shake A Tail Feather
TTITLE6=Crazy 'Bout You Babycrazy
TTITLE7=We Need Understandingwe
TTITLE8=Rock Me Baby
TTITLE9=So Fine
TTITLE10=My Babe
TTITLE11=Ain't Nobody's Business
EXTD=
EXTT0=
EXTT1=
EXTT2=
EXTT3=
EXTT4=
EXTT5=
EXTT6=
EXTT7=
EXTT8=
EXTT9=
EXTT10=
EXTT11=
PLAYORDER=
